<svg width="18" height="17" viewBox="0 0 18 17" fill="currentColor" xmlns="http://www.w3.org/2000/svg">
<rect width="18" height="17" fill="currentColor"/>
<g id="&#237;&#136;&#172;&#236;&#158;&#144;&#237;&#149;&#152;&#234;&#184;&#176; &#237;&#148;&#140;&#235;&#161;&#156;&#236;&#154;&#176;">
<path d="M-641 -1066C-641 -1067.1 -640.105 -1068 -639 -1068H7049C7050.1 -1068 7051 -1067.1 7051 -1066V1460C7051 1461.1 7050.1 1462 7049 1462H-639C-640.105 1462 -641 1461.1 -641 1460V-1066Z" fill="currentColor"/>
<path d="M-639 -1068V-1067H7049V-1068V-1069H-639V-1068ZM7051 -1066H7050V1460H7051H7052V-1066H7051ZM7049 1462V1461H-639V1462V1463H7049V1462ZM-641 1460H-640V-1066H-641H-642V1460H-641ZM-639 1462V1461C-639.552 1461 -640 1460.55 -640 1460H-641H-642C-642 1461.66 -640.657 1463 -639 1463V1462ZM7051 1460H7050C7050 1460.55 7049.55 1461 7049 1461V1462V1463C7050.66 1463 7052 1461.66 7052 1460H7051ZM7049 -1068V-1067C7049.55 -1067 7050 -1066.55 7050 -1066H7051H7052C7052 -1067.66 7050.66 -1069 7049 -1069V-1068ZM-639 -1068V-1069C-640.657 -1069 -642 -1067.66 -642 -1066H-641H-640C-640 -1066.55 -639.552 -1067 -639 -1067V-1068Z" fill="currentColor" fill-opacity="0.1"/>
<g id="Frame 1000003940" clip-path="url(#clip0_60_163)">
<rect width="390" height="844" transform="translate(-332 -796)" fill="#F4F4F5"/>
<g id="menu" filter="url(#filter0_d_60_163)">
<mask id="path-3-inside-1_60_163" fill="white">
<path d="M-332 2.99999C-332 -8.0457 -323.046 -17 -312 -17H38C49.0457 -17 58 -8.0457 58 3V48.4H-332V2.99999Z"/>
</mask>
<path d="M-332 3C-332 -8.48752 -322.688 -17.8 -311.2 -17.8H37.2C48.6875 -17.8 58 -8.48752 58 3C58 -7.60387 49.0457 -16.2 38 -16.2H-312C-323.046 -16.2 -332 -7.60387 -332 3ZM58 48.4H-332H58ZM-332 48.4V-17V48.4ZM58 -17V48.4V-17Z" fill="#E4E4E7" mask="url(#path-3-inside-1_60_163)"/>
<g id="Frame 1000003707">
<path d="M-39.5996 -17H37.8004C48.8461 -17 57.8004 -8.0457 57.8004 3V48.4H-39.5996V-17Z" fill="white"/>
<g id="Frame 1000003699">
<g id="Frame 1000003911">
<path id="Vector" d="M16.2196 3.75017V1.97024C16.2196 0.988606 15.4213 0.190308 14.4396 0.190308H2.87009C1.39809 0.190308 0.200195 1.3882 0.200195 2.8602V13.5398C0.200195 15.4986 1.79679 16.2097 2.87009 16.2097H16.2196C17.2012 16.2097 17.9995 15.4114 17.9995 14.4298V5.5301C17.9995 4.54847 17.2012 3.75017 16.2196 3.75017ZM14.4396 11.7599H12.6597V8.2H14.4396V11.7599ZM2.87009 3.75017C2.64094 3.73992 2.42458 3.64168 2.26605 3.4759C2.10752 3.31012 2.01905 3.08958 2.01905 2.8602C2.01905 2.63083 2.10752 2.41029 2.26605 2.24451C2.42458 2.07873 2.64094 1.98049 2.87009 1.97024H14.4396V3.75017H2.87009Z" fill="currentColor"/>
</g>
</g>
</g>
</g>
</g>
</g>
<defs>
<filter id="filter0_d_60_163" x="-352" y="-41" width="430" height="105.4" filterUnits="userSpaceOnUse" color-interpolation-filters="sRGB">
<feFlood flood-opacity="0" result="BackgroundImageFix"/>
<feColorMatrix in="SourceAlpha" type="matrix" values="0 0 0 0 0 0 0 0 0 0 0 0 0 0 0 0 0 0 127 0" result="hardAlpha"/>
<feOffset dy="-4"/>
<feGaussianBlur stdDeviation="10"/>
<feComposite in2="hardAlpha" operator="out"/>
<feColorMatrix type="matrix" values="0 0 0 0 0 0 0 0 0 0 0 0 0 0 0 0 0 0 0.15 0"/>
<feBlend mode="normal" in2="BackgroundImageFix" result="effect1_dropShadow_60_163"/>
<feBlend mode="normal" in="SourceGraphic" in2="effect1_dropShadow_60_163" result="shape"/>
</filter>
<clipPath id="clip0_60_163">
<rect width="390" height="844" fill="white" transform="translate(-332 -796)"/>
</clipPath>
</defs>
</svg>
