<svg width="16" height="20" viewBox="0 0 16 20" fill="currentColor" xmlns="http://www.w3.org/2000/svg">
<path d="M1 5.224C1 3.74546 1 3.00619 1.28774 2.44147C1.54085 1.94472 1.94472 1.54085 2.44147 1.28774C3.00619 1 3.74546 1 5.224 1H10.856C12.3345 1 13.0738 1 13.6385 1.28774C14.1353 1.54085 14.5392 1.94472 14.7923 2.44147C15.08 3.00619 15.08 3.74546 15.08 5.224V14.376C15.08 15.8545 15.08 16.5938 14.7923 17.1585C14.5392 17.6553 14.1353 18.0592 13.6385 18.3123C13.0738 18.6 12.3345 18.6 10.856 18.6H5.224C3.74546 18.6 3.00619 18.6 2.44147 18.3123C1.94472 18.0592 1.54085 17.6553 1.28774 17.1585C1 16.5938 1 15.8545 1 14.376V5.224Z" fill="currentColor"/>
<path d="M11.56 5.4H4.52M15.08 5.224V14.376C15.08 15.8545 15.08 16.5938 14.7923 17.1585C14.5392 17.6553 14.1353 18.0592 13.6385 18.3123C13.0738 18.6 12.3345 18.6 10.856 18.6H5.224C3.74546 18.6 3.00619 18.6 2.44147 18.3123C1.94472 18.0592 1.54085 17.6553 1.28774 17.1585C1 16.5938 1 15.8545 1 14.376V5.224C1 3.74546 1 3.00619 1.28774 2.44147C1.54085 1.94472 1.94472 1.54085 2.44147 1.28774C3.00619 1 3.74546 1 5.224 1H10.856C12.3345 1 13.0738 1 13.6385 1.28774C14.1353 1.54085 14.5392 1.94472 14.7923 2.44147C15.08 3.00619 15.08 3.74546 15.08 5.224Z" stroke="currentColor" stroke-width="1.1" stroke-linecap="round" stroke-linejoin="round"/>
<path d="M3.87311 5.79846H11.5731" stroke="white" stroke-width="1.1" stroke-linecap="round"/>
<path d="M3.87311 9.09845H10.4731" stroke="white" stroke-width="1.1" stroke-linecap="round"/>
<path d="M3.87311 12.3984H7.17311" stroke="white" stroke-width="1.1" stroke-linecap="round"/>
</svg>
