<svg width="18" height="18" viewBox="0 0 18 18" fill="none" xmlns="http://www.w3.org/2000/svg">
<rect width="18" height="18" rx="9" fill="#F04343"/>
<g clip-path="url(#clip0_3106_20924)">
<path fill-rule="evenodd" clip-rule="evenodd" d="M12.803 5.76296C12.878 5.68794 12.9201 5.58619 12.9201 5.4801C12.9201 5.37401 12.878 5.27226 12.803 5.19724C12.7279 5.12222 12.6262 5.08008 12.5201 5.08008C12.414 5.08008 12.3123 5.12222 12.2372 5.19724L9.0001 8.43438L5.76296 5.19724C5.68794 5.12222 5.58619 5.08008 5.4801 5.08008C5.37401 5.08008 5.27226 5.12222 5.19724 5.19724C5.12222 5.27226 5.08008 5.37401 5.08008 5.4801C5.08008 5.58619 5.12222 5.68794 5.19724 5.76296L8.43438 9.0001L5.19724 12.2372C5.12222 12.3123 5.08008 12.414 5.08008 12.5201C5.08008 12.6262 5.12222 12.7279 5.19724 12.803C5.27226 12.878 5.37401 12.9201 5.4801 12.9201C5.58619 12.9201 5.68794 12.878 5.76296 12.803L9.0001 9.56581L12.2372 12.803C12.3123 12.878 12.414 12.9201 12.5201 12.9201C12.6262 12.9201 12.7279 12.878 12.803 12.803C12.878 12.7279 12.9201 12.6262 12.9201 12.5201C12.9201 12.414 12.878 12.3123 12.803 12.2372L9.56581 9.0001L12.803 5.76296Z" fill="white"/>
</g>
<defs>
<clipPath id="clip0_3106_20924">
<rect width="8" height="8" fill="white" transform="translate(5 5)"/>
</clipPath>
</defs>
</svg>
