<svg width="22" height="22" viewBox="0 0 22 22" fill="none" xmlns="http://www.w3.org/2000/svg">
<path d="M21 10.7998V13.8998C21 16.14 21 17.2601 20.564 18.1158C20.1805 18.8684 19.5686 19.4803 18.816 19.8638C17.9603 20.2998 16.8402 20.2998 14.6 20.2998H7.4C5.15979 20.2998 4.03969 20.2998 3.18404 19.8638C2.43139 19.4803 1.81947 18.8684 1.43597 18.1158C1 17.2601 1 16.14 1 13.8998V8.6998C1 6.45959 1 5.33949 1.43597 4.48384C1.81947 3.73119 2.43139 3.11927 3.18404 2.73578C4.03969 2.2998 5.15979 2.2998 7.4 2.2998H11.5M18 7.2998V1.2998M15 4.2998H21M15 11.2998C15 13.5089 13.2091 15.2998 11 15.2998C8.79086 15.2998 7 13.5089 7 11.2998C7 9.09067 8.79086 7.2998 11 7.2998C13.2091 7.2998 15 9.09067 15 11.2998Z" stroke="#3F3F46" stroke-width="2" stroke-linecap="round" stroke-linejoin="round"/>
</svg>
