<svg width="18" height="18" viewBox="0 0 18 18" fill="currentColor" xmlns="http://www.w3.org/2000/svg">
<path d="M15.9845 7.7216C16.5273 7.51048 16.7988 7.40492 16.875 7.25567C16.941 7.12636 16.939 6.97281 16.8696 6.84528C16.7895 6.69808 16.5154 6.59968 15.9672 6.40287L1.98425 1.38335C1.53572 1.22234 1.31145 1.14183 1.16484 1.19261C1.03737 1.23675 0.937191 1.33693 0.893047 1.4644C0.842274 1.61101 0.922779 1.83528 1.08379 2.28381L6.10327 16.2668C6.30007 16.815 6.39847 17.0891 6.54568 17.1692C6.67321 17.2386 6.82676 17.2406 6.95607 17.1746C7.10532 17.0984 7.21088 16.8269 7.422 16.2841L9.70722 10.4078C9.74858 10.3014 9.76926 10.2483 9.80119 10.2035C9.8295 10.1638 9.86421 10.1291 9.90389 10.1008C9.94867 10.0689 10.0018 10.0482 10.1082 10.0068L15.9845 7.7216Z" fill="currentColor" stroke="currentColor" stroke-width="1.1" stroke-linecap="round" stroke-linejoin="round"/>
</svg>
