<svg width="15" height="14" viewBox="0 0 15 14" fill="none" xmlns="http://www.w3.org/2000/svg">
<path d="M8.0583 1.92613C8.0583 2.72131 6.36315 3.36593 4.27207 3.36593C2.18099 3.36593 0.48584 2.72131 0.48584 1.92613M8.0583 1.92613C8.0583 1.13095 6.36315 0.486328 4.27207 0.486328C2.18099 0.486328 0.48584 1.13095 0.48584 1.92613M8.0583 1.92613V3.00598M0.48584 1.92613V10.5649C0.48584 11.3601 2.18099 12.0048 4.27207 12.0048M4.27207 6.24554C4.15604 6.24554 4.04124 6.24356 3.92787 6.23967C1.99809 6.17354 0.48584 5.5568 0.48584 4.80574M4.27207 9.12515C2.18099 9.12515 0.48584 8.48052 0.48584 7.68534M14.254 6.60549C14.254 7.40067 12.5588 8.04529 10.4677 8.04529C8.37665 8.04529 6.68149 7.40067 6.68149 6.60549M14.254 6.60549C14.254 5.81031 12.5588 5.16569 10.4677 5.16569C8.37665 5.16569 6.68149 5.81031 6.68149 6.60549M14.254 6.60549V12.0048C14.254 12.7999 12.5588 13.4446 10.4677 13.4446C8.37665 13.4446 6.68149 12.7999 6.68149 12.0048V6.60549M14.254 9.30512C14.254 10.1003 12.5588 10.7449 10.4677 10.7449C8.37665 10.7449 6.68149 10.1003 6.68149 9.30512" stroke="#3F3F46" stroke-width="0.971867" stroke-linecap="round" stroke-linejoin="round"/>
</svg>
