<svg width="16" height="20" viewBox="0 0 16 20" fill="currentColor" xmlns="http://www.w3.org/2000/svg">
<path d="M1.25977 5.62402C1.25977 4.14549 1.25977 3.40622 1.54751 2.84149C1.80061 2.34474 2.20448 1.94087 2.70123 1.68777C3.26596 1.40002 4.00523 1.40002 5.48377 1.40002H10.0598L15.3398 6.68002V14.776C15.3398 16.2546 15.3398 16.9938 15.052 17.5586C14.7989 18.0553 14.395 18.4592 13.8983 18.7123C13.3336 19 12.5943 19 11.1158 19H5.48377C4.00523 19 3.26596 19 2.70123 18.7123C2.20448 18.4592 1.80061 18.0553 1.54751 17.5586C1.25977 16.9938 1.25977 16.2546 1.25977 14.776V5.62402Z" fill="currentColor"/>
<path d="M10.0598 1.63721V5.27209C10.0598 5.76493 10.0598 6.01136 10.1557 6.1996C10.24 6.36518 10.3747 6.4998 10.5403 6.58417C10.7285 6.68009 10.9749 6.68009 11.4678 6.68009H15.1026M8.29977 15.48V10.2M5.65977 12.84H10.9398M10.0598 1.40002H5.48377C4.00523 1.40002 3.26596 1.40002 2.70123 1.68777C2.20448 1.94087 1.80061 2.34474 1.54751 2.84149C1.25977 3.40622 1.25977 4.14549 1.25977 5.62402V14.776C1.25977 16.2546 1.25977 16.9938 1.54751 17.5586C1.80061 18.0553 2.20448 18.4592 2.70123 18.7123C3.26596 19 4.00523 19 5.48377 19H11.1158C12.5943 19 13.3336 19 13.8983 18.7123C14.395 18.4592 14.7989 18.0553 15.052 17.5586C15.3398 16.9938 15.3398 16.2546 15.3398 14.776V6.68002L10.0598 1.40002Z" stroke="currentColor" stroke-width="1.1" stroke-linecap="round" stroke-linejoin="round"/>
<path d="M8.4082 9.10156L8.4082 14.6016" stroke="white" stroke-width="1.1" stroke-linecap="round"/>
<path d="M5.6582 11.8516L11.1582 11.8516" stroke="white" stroke-width="1.1" stroke-linecap="round"/>
</svg>
