<svg width="346" height="350" viewBox="0 0 346 350" fill="none" xmlns="http://www.w3.org/2000/svg">
<ellipse cx="173" cy="175" rx="173" ry="175" fill="url(#paint0_radial_1253_7566)" fill-opacity="0.5"/>
<path d="M133.03 229.767C128.303 231.49 123.682 226.979 125.29 222.211L151.57 144.326C152.983 140.138 158.284 138.863 161.446 141.95L212.396 191.685C215.558 194.772 214.411 200.102 210.259 201.616L133.03 229.767Z" fill="url(#paint1_linear_1253_7566)"/>
<ellipse cx="183.758" cy="170.284" rx="41.7824" ry="14.7528" transform="rotate(44.3088 183.758 170.284)" fill="#E7D7FF"/>
<path d="M171.761 154.843C168.832 152.41 167.626 150.994 166.66 149.069C166.247 148.245 166.407 146.653 166.855 145.575C168.422 141.813 172.762 142.566 178.108 142.158C179.154 142.079 179.238 141.556 179.139 141.047C178.681 138.684 176.618 137.695 174.499 136.529C172.206 135.267 170.858 133.944 169.693 132.368C169.217 131.724 169.032 130.293 169.232 128.467C169.654 124.625 178.428 126.834 178.983 126.176C179.553 125.501 179.644 123.798 179.544 121.77C179.482 120.511 178.837 119.831 178.384 119.324C178.131 119.118 177.831 119.018 177.526 118.815C177.221 118.613 176.921 118.312 176.309 118.001" stroke="#C2CA34" stroke-width="3.94737" stroke-linecap="round"/>
<path d="M183.526 174.579C185.002 173.158 186.478 171.737 187.69 170.701C188.903 169.664 189.807 169.055 191.963 168.158C194.119 167.26 197.499 166.093 201.549 165.136C205.599 164.18 210.217 163.469 214.571 163.103C218.925 162.737 222.877 162.737 226.947 162.737" stroke="#232323" stroke-width="3.94737" stroke-linecap="round"/>
<path d="M137.867 157C138.595 155.235 139.324 153.47 140.023 150.795C140.722 148.121 141.369 144.59 141.703 141.311C142.036 138.031 142.036 135.109 141.955 133.391C141.818 130.474 140.408 129.155 139.302 127.678C138.264 126.292 137.381 125.584 135.993 125.153C134.099 124.564 132.967 125.824 131.985 126.44C131.245 127.667 131.164 129.083 131.042 129.758C131 130.127 131 130.554 131 130.993" stroke="#9C71D8" stroke-width="3.94737" stroke-linecap="round"/>
<path d="M214.751 194.528C216.348 194.131 217.77 193.927 218.777 194.026C219.452 194.092 219.791 194.792 220.16 195.457C220.634 196.313 220.599 197.857 220.3 199.524C220.025 201.052 217.253 202.199 214.901 204.459C213.727 205.587 214.012 207.778 214.078 208.832C214.153 210.044 218.143 210.154 223.655 210.286C225.577 210.332 225.706 210.683 225.775 211.15C225.939 212.268 225.777 213.157 225.576 213.59C224.655 215.577 221.144 216.829 218.726 219.093C217.511 220.23 217.574 223.024 218.042 224.575C218.51 224.975 219.25 225.311 220.522 225.512C221.327 225.58 222.459 225.58 223.625 225.58" stroke="#9C71D8" stroke-width="3.94737" stroke-linecap="round"/>
<path d="M195.016 214.393C194.503 214.393 193.84 214.131 193.221 213.635C192.853 213.341 192.944 212.741 192.958 212.279C192.964 212.078 193.001 211.947 193.101 211.814C193.334 211.506 193.833 211.415 194.379 211.465C194.642 211.488 194.867 211.612 195.013 211.777C195.297 212.099 195.275 212.997 195.218 213.94C195.196 214.298 195.047 214.391 194.832 214.523C194.313 214.842 193.553 214.988 192.848 214.939C192.568 214.92 192.457 214.792 192.356 214.561C191.881 213.481 191.994 212.643 192.065 212.015C192.217 210.677 194.724 211.019 195.371 211.1C195.628 211.133 195.705 211.346 195.777 211.594C195.942 212.158 195.966 212.867 195.937 213.479C195.919 213.873 195.707 214.094 195.507 214.292C194.989 214.803 194.213 214.921 193.436 214.923C193.262 214.857 193.148 214.726 193.06 214.593C192.973 214.46 192.916 214.329 192.858 214.194" stroke="#C2CA34" stroke-width="3.94737" stroke-linecap="round"/>
<path d="M146.292 189.578C145.902 189.578 145.398 189.379 144.928 189.002C144.648 188.778 144.717 188.323 144.728 187.971C144.733 187.818 144.761 187.719 144.837 187.618C145.013 187.384 145.393 187.315 145.808 187.352C146.008 187.37 146.179 187.464 146.29 187.59C146.506 187.834 146.489 188.517 146.446 189.233C146.429 189.505 146.316 189.576 146.152 189.677C145.758 189.919 145.18 190.03 144.645 189.993C144.432 189.978 144.347 189.881 144.27 189.706C143.909 188.885 143.996 188.248 144.05 187.771C144.165 186.754 146.07 187.013 146.562 187.076C146.757 187.1 146.816 187.262 146.871 187.451C146.996 187.879 147.014 188.418 146.992 188.883C146.978 189.182 146.818 189.351 146.665 189.501C146.272 189.889 145.682 189.979 145.091 189.98C144.959 189.931 144.872 189.831 144.806 189.73C144.74 189.629 144.696 189.529 144.652 189.427" stroke="#EA596E" stroke-width="3.94737" stroke-linecap="round"/>
<path d="M127.016 173.392C126.503 173.392 125.84 173.13 125.221 172.635C124.853 172.34 124.944 171.74 124.958 171.278C124.964 171.077 125.001 170.946 125.101 170.813C125.334 170.505 125.833 170.415 126.379 170.464C126.642 170.487 126.867 170.611 127.013 170.776C127.297 171.098 127.275 171.996 127.218 172.939C127.196 173.297 127.047 173.39 126.832 173.522C126.313 173.841 125.553 173.987 124.848 173.938C124.568 173.919 124.457 173.791 124.356 173.56C123.881 172.48 123.994 171.642 124.065 171.014C124.217 169.676 126.724 170.018 127.371 170.099C127.628 170.132 127.705 170.345 127.777 170.593C127.942 171.157 127.966 171.866 127.937 172.478C127.919 172.872 127.707 173.093 127.507 173.291C126.989 173.802 126.213 173.92 125.436 173.922C125.262 173.856 125.148 173.725 125.06 173.592C124.973 173.459 124.916 173.328 124.858 173.193" stroke="#77B255" stroke-width="3.94737" stroke-linecap="round"/>
<path d="M208.016 150.393C207.503 150.393 206.84 150.131 206.221 149.635C205.853 149.341 205.944 148.741 205.958 148.279C205.964 148.078 206.001 147.947 206.101 147.814C206.334 147.506 206.833 147.415 207.379 147.465C207.642 147.488 207.867 147.612 208.013 147.777C208.297 148.099 208.275 148.997 208.218 149.94C208.196 150.298 208.047 150.391 207.832 150.523C207.313 150.842 206.553 150.988 205.848 150.939C205.568 150.92 205.457 150.792 205.356 150.561C204.881 149.481 204.994 148.643 205.065 148.015C205.217 146.677 207.724 147.019 208.371 147.1C208.628 147.133 208.705 147.346 208.777 147.594C208.942 148.158 208.966 148.867 208.937 149.479C208.919 149.873 208.707 150.094 208.507 150.292C207.989 150.803 207.213 150.921 206.436 150.923C206.262 150.857 206.148 150.726 206.06 150.593C205.973 150.46 205.916 150.329 205.858 150.194" stroke="#EA596E" stroke-width="3.94737" stroke-linecap="round"/>
<path d="M218.753 176.743C217.677 176.707 216.137 176.559 215.972 176.394C215.807 176.228 215.537 175.714 215.176 174.886C214.783 173.986 215.142 173.092 215.352 172.706C215.709 172.048 216.434 172.059 217.935 172.002C218.761 171.97 219.5 173.27 219.955 173.918C220.201 174.269 220.287 174.931 220.258 175.649C220.235 176.196 219.749 176.667 219.163 177.072C218.856 177.285 218.455 177.297 217.9 177.224C216.987 177.103 216.679 176.081 216.362 175.161C216.244 174.818 216.316 174.281 216.525 173.945C217.367 172.585 218.659 173.165 219.337 173.2C220.031 173.235 219.746 174.892 219.612 175.851C219.326 177.897 216.017 176.376 215.806 176.099C215.456 175.639 215.414 174.719 215.488 173.944C215.563 173.645 215.712 173.535 215.997 173.479C216.282 173.422 216.699 173.422 217.129 173.422" stroke="#77B255" stroke-width="3.94737" stroke-linecap="round"/>
<path d="M203.753 129.743C202.677 129.707 201.137 129.559 200.972 129.394C200.807 129.228 200.537 128.714 200.176 127.886C199.783 126.986 200.142 126.092 200.352 125.706C200.709 125.048 201.434 125.059 202.935 125.002C203.761 124.97 204.5 126.27 204.955 126.918C205.201 127.269 205.287 127.931 205.258 128.649C205.235 129.196 204.749 129.667 204.163 130.072C203.856 130.285 203.455 130.297 202.9 130.224C201.987 130.103 201.679 129.081 201.362 128.161C201.244 127.818 201.316 127.281 201.525 126.945C202.367 125.585 203.659 126.165 204.337 126.2C205.031 126.235 204.746 127.892 204.612 128.851C204.326 130.897 201.017 129.376 200.806 129.099C200.456 128.639 200.414 127.719 200.488 126.944C200.563 126.645 200.712 126.535 200.997 126.479C201.282 126.422 201.699 126.422 202.129 126.422" stroke="#EA596E" stroke-width="3.94737" stroke-linecap="round"/>
<defs>
<radialGradient id="paint0_radial_1253_7566" cx="0" cy="0" r="1" gradientUnits="userSpaceOnUse" gradientTransform="translate(173 175) rotate(90) scale(175 173)">
<stop stop-color="#DFC8FF"/>
<stop offset="1" stop-color="white"/>
</radialGradient>
<linearGradient id="paint1_linear_1253_7566" x1="208.795" y1="144.409" x2="121.298" y2="234.043" gradientUnits="userSpaceOnUse">
<stop stop-color="#996DD5"/>
<stop offset="1" stop-color="#2A065B"/>
</linearGradient>
</defs>
</svg>
