<svg width="163" height="163" viewBox="0 0 163 163" fill="none" xmlns="http://www.w3.org/2000/svg">
<path d="M49.0303 121.768C44.3029 123.491 39.6818 118.98 41.2904 114.212L67.57 36.3266C68.9828 32.1394 74.2839 30.8644 77.4462 33.9513L128.396 83.6861C131.558 86.773 130.411 92.1034 126.259 93.6168L49.0303 121.768Z" fill="url(#paint0_linear_1058_14926)"/>
<ellipse cx="99.7576" cy="62.2849" rx="41.7824" ry="14.7528" transform="rotate(44.3088 99.7576 62.2849)" fill="#E7D7FF"/>
<path d="M87.7611 46.8431C84.8323 44.4103 83.6256 42.9945 82.6599 41.0686C82.2471 40.2453 82.4068 38.6526 82.8555 37.5747C84.4216 33.8129 88.7616 34.5664 94.1083 34.1584C95.1539 34.0787 95.2377 33.5556 95.1391 33.0471C94.6813 30.6843 92.6181 29.6948 90.4988 28.5286C88.206 27.2669 86.8576 25.9436 85.6933 24.3679C85.2175 23.7239 85.0324 22.2928 85.2325 20.4675C85.6538 16.6246 94.4282 18.8339 94.983 18.1763C95.5527 17.501 95.6439 15.7983 95.5439 13.7704C95.4818 12.5114 94.8375 11.8309 94.3842 11.3239C94.131 11.1184 93.8309 11.0179 93.5262 10.8155C93.2215 10.613 92.9213 10.3115 92.3089 10.001" stroke="#C2CA34" stroke-width="3.94737" stroke-linecap="round"/>
<path d="M99.5264 66.5794C101.002 65.1584 102.478 63.7373 103.69 62.7007C104.903 61.6642 105.807 61.0551 107.963 60.1578C110.119 59.2604 113.499 58.0931 117.549 57.1365C121.599 56.1799 126.217 55.4694 130.571 55.1033C134.925 54.7373 138.877 54.7373 142.947 54.7373" stroke="#232323" stroke-width="3.94737" stroke-linecap="round"/>
<path d="M53.867 49C54.5954 47.2348 55.3238 45.4696 56.0228 42.7951C56.7218 40.1206 57.3692 36.5902 57.7028 33.3107C58.0363 30.0311 58.0363 27.1094 57.9554 25.3913C57.818 22.4737 56.4079 21.1554 55.3018 19.6779C54.2642 18.2919 53.3814 17.5844 51.9933 17.1528C50.0994 16.5639 48.9669 17.8242 47.9847 18.4403C47.2453 19.6669 47.1643 21.0834 47.0417 21.7576C47 22.1274 47 22.5535 47 22.9925" stroke="#9C71D8" stroke-width="3.94737" stroke-linecap="round"/>
<path d="M130.751 86.5276C132.348 86.131 133.77 85.9266 134.777 86.0258C135.452 86.0922 135.791 86.7921 136.16 87.4572C136.634 88.3128 136.599 89.8572 136.3 91.524C136.025 93.0523 133.253 94.1985 130.901 96.4594C129.727 97.587 130.012 99.7779 130.078 100.832C130.153 102.044 134.143 102.154 139.655 102.286C141.577 102.332 141.706 102.683 141.775 103.15C141.939 104.268 141.777 105.157 141.576 105.59C140.654 107.577 137.144 108.829 134.726 111.093C133.511 112.23 133.574 115.024 134.042 116.575C134.51 116.975 135.25 117.311 136.522 117.512C137.327 117.58 138.459 117.58 139.625 117.58" stroke="#9C71D8" stroke-width="3.94737" stroke-linecap="round"/>
<path d="M111.016 106.393C110.503 106.393 109.84 106.131 109.222 105.635C108.853 105.341 108.944 104.741 108.958 104.279C108.964 104.078 109.001 103.947 109.101 103.814C109.334 103.506 109.833 103.415 110.379 103.465C110.642 103.488 110.867 103.612 111.013 103.777C111.297 104.099 111.275 104.997 111.218 105.94C111.196 106.298 111.047 106.391 110.832 106.523C110.313 106.842 109.553 106.988 108.848 106.939C108.568 106.92 108.457 106.792 108.356 106.561C107.881 105.481 107.994 104.643 108.066 104.015C108.217 102.677 110.724 103.019 111.371 103.1C111.628 103.133 111.705 103.346 111.777 103.594C111.942 104.158 111.966 104.867 111.937 105.479C111.919 105.873 111.707 106.094 111.507 106.292C110.989 106.803 110.213 106.921 109.436 106.923C109.262 106.857 109.148 106.726 109.061 106.593C108.973 106.46 108.916 106.329 108.858 106.194" stroke="#C2CA34" stroke-width="3.94737" stroke-linecap="round"/>
<path d="M62.2921 81.5777C61.9023 81.5777 61.3984 81.3786 60.9283 81.0022C60.6485 80.7782 60.7174 80.3227 60.7282 79.9712C60.7329 79.8184 60.7607 79.7193 60.8368 79.6182C61.0135 79.3836 61.3932 79.315 61.8078 79.3524C62.008 79.3704 62.1792 79.4644 62.2901 79.5899C62.5059 79.8344 62.4889 80.5173 62.4456 81.2334C62.4291 81.5055 62.3157 81.5762 62.152 81.6769C61.7578 81.9193 61.1799 82.0302 60.6445 81.9929C60.4318 81.9781 60.3473 81.8809 60.2702 81.7056C59.9094 80.8848 59.9956 80.248 60.0497 79.771C60.1652 78.7537 62.0703 79.0133 62.5621 79.0756C62.7571 79.1002 62.8157 79.2622 62.8708 79.4508C62.996 79.8791 63.0138 80.4185 62.9922 80.8831C62.9782 81.1825 62.8176 81.3507 62.6651 81.5012C62.2716 81.8892 61.6819 81.979 61.0914 81.9805C60.9588 81.9307 60.8722 81.8311 60.8059 81.7301C60.7397 81.629 60.6964 81.5294 60.6517 81.4269" stroke="#EA596E" stroke-width="3.94737" stroke-linecap="round"/>
<path d="M43.0159 65.3917C42.5031 65.3917 41.84 65.1297 41.2215 64.6345C40.8532 64.3397 40.9439 63.7404 40.9581 63.2779C40.9643 63.0769 41.0009 62.9464 41.101 62.8135C41.3335 62.5047 41.8331 62.4145 42.3787 62.4636C42.6421 62.4873 42.8674 62.611 43.0133 62.7762C43.2973 63.0979 43.2749 63.9964 43.2179 64.9387C43.1962 65.2967 43.047 65.3897 42.8316 65.5222C42.3129 65.8412 41.5525 65.9872 40.8481 65.938C40.5682 65.9185 40.457 65.7907 40.3555 65.5599C39.8808 64.48 39.9942 63.6421 40.0655 63.0144C40.2173 61.6759 42.7241 62.0175 43.3711 62.0994C43.6278 62.1319 43.7048 62.345 43.7773 62.5931C43.9421 63.1567 43.9655 63.8664 43.937 64.4777C43.9187 64.8717 43.7074 65.093 43.5067 65.291C42.989 65.8016 42.213 65.9197 41.436 65.9217C41.2616 65.8562 41.1476 65.7252 41.0604 65.5922C40.9732 65.4592 40.9163 65.3282 40.8576 65.1932" stroke="#77B255" stroke-width="3.94737" stroke-linecap="round"/>
<path d="M124.016 42.3927C123.503 42.3927 122.84 42.1307 122.222 41.6355C121.853 41.3407 121.944 40.7413 121.958 40.2789C121.964 40.0779 122.001 39.9474 122.101 39.8144C122.334 39.5057 122.833 39.4155 123.379 39.4646C123.642 39.4883 123.867 39.612 124.013 39.7772C124.297 40.0988 124.275 40.9974 124.218 41.9397C124.196 42.2976 124.047 42.3907 123.832 42.5232C123.313 42.8422 122.553 42.9881 121.848 42.939C121.568 42.9195 121.457 42.7916 121.356 42.5609C120.881 41.481 120.994 40.6431 121.066 40.0154C121.217 38.6769 123.724 39.0185 124.371 39.1004C124.628 39.1329 124.705 39.346 124.777 39.5941C124.942 40.1577 124.966 40.8674 124.937 41.4787C124.919 41.8726 124.707 42.094 124.507 42.292C123.989 42.8026 123.213 42.9207 122.436 42.9226C122.262 42.8571 122.148 42.7262 122.061 42.5932C121.973 42.4602 121.916 42.3292 121.858 42.1942" stroke="#EA596E" stroke-width="3.94737" stroke-linecap="round"/>
<path d="M134.753 68.7431C133.677 68.7066 132.137 68.5594 131.972 68.3939C131.806 68.2284 131.537 67.7137 131.176 66.8862C130.783 65.9858 131.142 65.0924 131.352 64.7055C131.709 64.0479 132.434 64.0585 133.935 64.0015C134.761 63.9702 135.5 65.2695 135.955 65.9182C136.201 66.2692 136.287 66.9311 136.258 67.6495C136.235 68.1956 135.749 68.6667 135.163 69.0724C134.856 69.285 134.455 69.2966 133.9 69.2235C132.987 69.1035 132.679 68.0812 132.362 67.1613C132.244 66.8178 132.316 66.2813 132.525 65.9448C133.367 64.5849 134.659 65.1655 135.337 65.1998C136.031 65.2349 135.746 66.8923 135.612 67.8509C135.326 69.8967 132.017 68.3756 131.806 68.0994C131.456 67.6387 131.414 66.7185 131.488 65.9442C131.563 65.6448 131.712 65.5352 131.997 65.4787C132.282 65.4223 132.699 65.4223 133.129 65.4223" stroke="#77B255" stroke-width="3.94737" stroke-linecap="round"/>
<path d="M119.753 21.7431C118.677 21.7066 117.137 21.5594 116.972 21.3939C116.807 21.2284 116.537 20.7137 116.176 19.8862C115.783 18.9858 116.142 18.0924 116.352 17.7055C116.709 17.0479 117.434 17.0585 118.935 17.0015C119.761 16.9702 120.5 18.2695 120.955 18.9182C121.201 19.2692 121.287 19.9311 121.258 20.6495C121.235 21.1956 120.749 21.6667 120.163 22.0724C119.856 22.285 119.455 22.2966 118.9 22.2235C117.987 22.1035 117.679 21.0812 117.362 20.1613C117.244 19.8178 117.316 19.2813 117.525 18.9448C118.367 17.5849 119.659 18.1655 120.337 18.1998C121.031 18.2349 120.746 19.8923 120.612 20.8509C120.326 22.8967 117.017 21.3756 116.806 21.0994C116.456 20.6387 116.414 19.7185 116.488 18.9442C116.563 18.6448 116.712 18.5352 116.997 18.4787C117.282 18.4223 117.699 18.4223 118.129 18.4223" stroke="#EA596E" stroke-width="3.94737" stroke-linecap="round"/>
<defs>
<linearGradient id="paint0_linear_1058_14926" x1="124.795" y1="36.4102" x2="37.2982" y2="126.044" gradientUnits="userSpaceOnUse">
<stop stop-color="#996DD5"/>
<stop offset="1" stop-color="#2A065B"/>
</linearGradient>
</defs>
</svg>
