<svg width="20" height="21" viewBox="0 0 20 21" fill="none" xmlns="http://www.w3.org/2000/svg">
<path d="M5 7.46875H8.33333" stroke="#2A2A2E" stroke-width="1.2" stroke-linecap="round" stroke-linejoin="round"/>
<path d="M17.3608 8.30078H15.1925C13.705 8.30078 12.5 9.41995 12.5 10.8008C12.5 12.1816 13.7058 13.3008 15.1917 13.3008H17.3608C17.4308 13.3008 17.465 13.3008 17.4942 13.2991C17.9442 13.2716 18.3025 12.9391 18.3317 12.5216C18.3333 12.4949 18.3333 12.4624 18.3333 12.3983V9.20328C18.3333 9.13911 18.3333 9.10661 18.3317 9.07995C18.3017 8.66245 17.9442 8.32995 17.4942 8.30245C17.4658 8.30078 17.4308 8.30078 17.3608 8.30078Z" stroke="#2A2A2E" stroke-width="1.2"/>
<path d="M17.4712 8.30143C17.4062 6.74143 17.1978 5.78477 16.5237 5.11143C15.5478 4.13477 13.9762 4.13477 10.8337 4.13477H8.33366C5.19116 4.13477 3.61949 4.13477 2.64366 5.11143C1.66783 6.0881 1.66699 7.65893 1.66699 10.8014C1.66699 13.9439 1.66699 15.5156 2.64366 16.4914C3.62033 17.4673 5.19116 17.4681 8.33366 17.4681H10.8337C13.9762 17.4681 15.5478 17.4681 16.5237 16.4914C17.1978 15.8181 17.407 14.8614 17.4712 13.3014" stroke="#2A2A2E" stroke-width="1.2"/>
<path d="M14.9932 10.8008H15.0019" stroke="#2A2A2E" stroke-width="1.2" stroke-linecap="round" stroke-linejoin="round"/>
</svg>
