<svg width="95" height="14" viewBox="0 0 95 14" fill="none" xmlns="http://www.w3.org/2000/svg">
<path d="M0.441 12.411C0.471 12.081 0.576 11.757 0.756 11.439C0.936 11.115 1.137 10.857 1.359 10.665C1.875 10.995 2.451 11.28 3.087 11.52C3.729 11.754 4.365 11.871 4.995 11.871C5.643 11.871 6.132 11.727 6.462 11.439C6.798 11.145 6.966 10.788 6.966 10.368C6.966 10.038 6.855 9.726 6.633 9.432C6.411 9.138 6.042 8.88 5.526 8.658L3.357 7.758C2.601 7.44 1.992 7.029 1.53 6.525C1.068 6.015 0.837 5.358 0.837 4.554C0.837 3.864 1.017 3.249 1.377 2.709C1.743 2.163 2.241 1.737 2.871 1.431C3.501 1.119 4.221 0.963 5.031 0.963C5.817 0.963 6.558 1.065 7.254 1.269C7.95 1.473 8.532 1.692 9 1.926C8.988 2.256 8.907 2.58 8.757 2.898C8.613 3.21 8.427 3.471 8.199 3.681C7.731 3.453 7.206 3.255 6.624 3.087C6.048 2.913 5.523 2.826 5.049 2.826C4.443 2.826 3.978 2.97 3.654 3.258C3.336 3.546 3.177 3.882 3.177 4.266C3.177 4.602 3.291 4.881 3.519 5.103C3.753 5.325 4.08 5.526 4.5 5.706L6.678 6.606C7.488 6.942 8.139 7.401 8.631 7.983C9.129 8.559 9.378 9.246 9.378 10.044C9.378 10.746 9.21 11.376 8.874 11.934C8.544 12.492 8.043 12.933 7.371 13.257C6.699 13.581 5.859 13.743 4.851 13.743C4.107 13.743 3.342 13.626 2.556 13.392C1.77 13.158 1.065 12.831 0.441 12.411ZM10.668 8.577C10.668 7.545 10.845 6.642 11.199 5.868C11.559 5.088 12.087 4.482 12.783 4.05C13.479 3.612 14.337 3.393 15.357 3.393C16.395 3.393 17.262 3.609 17.958 4.041C18.66 4.473 19.188 5.079 19.542 5.859C19.896 6.633 20.073 7.539 20.073 8.577C20.073 9.621 19.893 10.53 19.533 11.304C19.179 12.078 18.651 12.678 17.949 13.104C17.253 13.53 16.389 13.743 15.357 13.743C14.331 13.743 13.467 13.527 12.765 13.095C12.069 12.663 11.544 12.06 11.19 11.286C10.842 10.512 10.668 9.609 10.668 8.577ZM12.99 8.577C12.99 8.961 13.02 9.357 13.08 9.765C13.146 10.167 13.263 10.542 13.431 10.89C13.599 11.238 13.839 11.52 14.151 11.736C14.463 11.946 14.868 12.051 15.366 12.051C15.87 12.051 16.278 11.946 16.59 11.736C16.902 11.52 17.142 11.238 17.31 10.89C17.478 10.542 17.592 10.167 17.652 9.765C17.712 9.357 17.742 8.961 17.742 8.577C17.742 8.193 17.712 7.797 17.652 7.389C17.592 6.981 17.478 6.603 17.31 6.255C17.142 5.907 16.902 5.628 16.59 5.418C16.278 5.202 15.87 5.094 15.366 5.094C14.868 5.094 14.463 5.202 14.151 5.418C13.839 5.628 13.599 5.907 13.431 6.255C13.263 6.603 13.146 6.981 13.08 7.389C13.02 7.797 12.99 8.193 12.99 8.577ZM30.4352 9.918C30.4352 11.136 30.0662 12.078 29.3282 12.744C28.5962 13.41 27.5582 13.743 26.2142 13.743C24.8762 13.743 23.8382 13.41 23.1002 12.744C22.3622 12.078 21.9932 11.136 21.9932 9.918V3.654L22.1012 3.555H22.9382C23.3822 3.555 23.7122 3.669 23.9282 3.897C24.1502 4.119 24.2612 4.485 24.2612 4.995V9.909C24.2612 10.557 24.4172 11.061 24.7292 11.421C25.0412 11.775 25.5362 11.952 26.2142 11.952C26.8982 11.952 27.3932 11.775 27.6992 11.421C28.0112 11.061 28.1672 10.557 28.1672 9.909V3.636C28.3472 3.606 28.5362 3.585 28.7342 3.573C28.9382 3.561 29.1152 3.555 29.2652 3.555C29.4152 3.555 29.6012 3.561 29.8232 3.573C30.0512 3.585 30.2552 3.612 30.4352 3.654V9.918ZM36.1844 8.334C36.0944 8.172 35.9834 7.956 35.8514 7.686C35.7254 7.41 35.5994 7.137 35.4734 6.867C35.3474 6.591 35.2454 6.372 35.1674 6.21L35.0954 6.237C35.1134 6.645 35.1314 7.095 35.1494 7.587C35.1734 8.073 35.1914 8.529 35.2034 8.955C35.2154 9.375 35.2214 9.69 35.2214 9.9V13.5C35.0354 13.536 34.8524 13.557 34.6724 13.563C34.4984 13.575 34.3364 13.581 34.1864 13.581C34.0424 13.581 33.8744 13.575 33.6824 13.563C33.4904 13.557 33.3044 13.536 33.1244 13.5V3.681C33.3044 3.645 33.5234 3.615 33.7814 3.591C34.0394 3.567 34.2464 3.555 34.4024 3.555C34.5704 3.555 34.7834 3.561 35.0414 3.573C35.3054 3.579 35.5274 3.6 35.7074 3.636L38.4704 8.811C38.5604 8.967 38.6744 9.192 38.8124 9.486C38.9504 9.774 39.0884 10.068 39.2264 10.368C39.3644 10.662 39.4754 10.893 39.5594 11.061L39.6404 11.043C39.6164 10.689 39.5864 10.275 39.5504 9.801C39.5204 9.321 39.4934 8.856 39.4694 8.406C39.4454 7.95 39.4334 7.584 39.4334 7.308V4.824C39.4334 4.32 39.5354 3.981 39.7394 3.807C39.9434 3.633 40.2674 3.546 40.7114 3.546H41.4764L41.5844 3.654V13.473C41.3984 13.509 41.1764 13.536 40.9184 13.554C40.6604 13.572 40.4534 13.581 40.2974 13.581C40.1354 13.581 39.9164 13.575 39.6404 13.563C39.3644 13.557 39.1394 13.536 38.9654 13.5L36.1844 8.334ZM52.9857 8.586C52.9857 10.23 52.6107 11.472 51.8607 12.312C51.1107 13.146 49.9077 13.563 48.2517 13.563C47.5677 13.563 46.9527 13.557 46.4067 13.545C45.8607 13.539 45.2397 13.527 44.5437 13.509L44.4447 13.41V3.726L44.5437 3.627C45.2397 3.609 45.8607 3.594 46.4067 3.582C46.9527 3.57 47.5677 3.564 48.2517 3.564C49.8957 3.564 51.0957 3.999 51.8517 4.869C52.6077 5.733 52.9857 6.972 52.9857 8.586ZM50.6727 8.586C50.6727 8.214 50.6427 7.836 50.5827 7.452C50.5227 7.068 50.4087 6.717 50.2407 6.399C50.0787 6.081 49.8357 5.826 49.5117 5.634C49.1937 5.436 48.7707 5.337 48.2427 5.337C47.9427 5.337 47.6757 5.334 47.4417 5.328C47.2137 5.322 46.9617 5.319 46.6857 5.319V11.835C46.9677 11.835 47.2227 11.832 47.4507 11.826C47.6787 11.82 47.9427 11.817 48.2427 11.817C48.7707 11.817 49.1937 11.721 49.5117 11.529C49.8357 11.331 50.0787 11.073 50.2407 10.755C50.4087 10.437 50.5227 10.089 50.5827 9.711C50.6427 9.333 50.6727 8.958 50.6727 8.586ZM57.3736 13.5C57.1876 13.536 56.9926 13.557 56.7886 13.563C56.5846 13.575 56.4016 13.581 56.2396 13.581C56.0776 13.581 55.8946 13.575 55.6906 13.563C55.4866 13.557 55.2946 13.536 55.1146 13.5V3.726L55.2136 3.636H61.8286C61.8646 3.768 61.8916 3.915 61.9096 4.077C61.9276 4.239 61.9366 4.377 61.9366 4.491C61.9366 4.815 61.8496 5.067 61.6756 5.247C61.5076 5.427 61.2106 5.517 60.7846 5.517H58.6696C58.4356 5.517 58.2106 5.517 57.9946 5.517C57.7786 5.511 57.5686 5.508 57.3646 5.508C57.3706 5.706 57.3736 5.904 57.3736 6.102C57.3736 6.294 57.3736 6.486 57.3736 6.678V7.785C57.5476 7.779 57.7006 7.776 57.8326 7.776H60.8926C60.9286 7.908 60.9526 8.058 60.9646 8.226C60.9826 8.388 60.9916 8.529 60.9916 8.649C60.9916 8.775 60.9826 8.925 60.9646 9.099C60.9526 9.273 60.9286 9.429 60.8926 9.567H57.8326C57.7006 9.567 57.5476 9.564 57.3736 9.558V13.5ZM71.9371 9.918C71.9371 11.136 71.5681 12.078 70.8301 12.744C70.0981 13.41 69.0601 13.743 67.7161 13.743C66.3781 13.743 65.3401 13.41 64.6021 12.744C63.8641 12.078 63.4951 11.136 63.4951 9.918V3.654L63.6031 3.555H64.4401C64.8841 3.555 65.2141 3.669 65.4301 3.897C65.6521 4.119 65.7631 4.485 65.7631 4.995V9.909C65.7631 10.557 65.9191 11.061 66.2311 11.421C66.5431 11.775 67.0381 11.952 67.7161 11.952C68.4001 11.952 68.8951 11.775 69.2011 11.421C69.5131 11.061 69.6691 10.557 69.6691 9.909V3.636C69.8491 3.606 70.0381 3.585 70.2361 3.573C70.4401 3.561 70.6171 3.555 70.7671 3.555C70.9171 3.555 71.1031 3.561 71.3251 3.573C71.5531 3.585 71.7571 3.612 71.9371 3.654V9.918ZM77.6863 8.334C77.5963 8.172 77.4853 7.956 77.3533 7.686C77.2273 7.41 77.1013 7.137 76.9753 6.867C76.8493 6.591 76.7473 6.372 76.6693 6.21L76.5973 6.237C76.6153 6.645 76.6333 7.095 76.6513 7.587C76.6753 8.073 76.6933 8.529 76.7053 8.955C76.7173 9.375 76.7233 9.69 76.7233 9.9V13.5C76.5373 13.536 76.3543 13.557 76.1743 13.563C76.0003 13.575 75.8383 13.581 75.6883 13.581C75.5443 13.581 75.3763 13.575 75.1843 13.563C74.9923 13.557 74.8063 13.536 74.6263 13.5V3.681C74.8063 3.645 75.0253 3.615 75.2833 3.591C75.5413 3.567 75.7483 3.555 75.9043 3.555C76.0723 3.555 76.2853 3.561 76.5433 3.573C76.8073 3.579 77.0293 3.6 77.2093 3.636L79.9723 8.811C80.0623 8.967 80.1763 9.192 80.3143 9.486C80.4523 9.774 80.5903 10.068 80.7283 10.368C80.8663 10.662 80.9773 10.893 81.0613 11.061L81.1423 11.043C81.1183 10.689 81.0883 10.275 81.0523 9.801C81.0223 9.321 80.9953 8.856 80.9713 8.406C80.9473 7.95 80.9353 7.584 80.9353 7.308V4.824C80.9353 4.32 81.0373 3.981 81.2413 3.807C81.4453 3.633 81.7693 3.546 82.2133 3.546H82.9783L83.0863 3.654V13.473C82.9003 13.509 82.6783 13.536 82.4203 13.554C82.1623 13.572 81.9553 13.581 81.7993 13.581C81.6373 13.581 81.4183 13.575 81.1423 13.563C80.8663 13.557 80.6413 13.536 80.4673 13.5L77.6863 8.334ZM94.4876 8.586C94.4876 10.23 94.1126 11.472 93.3626 12.312C92.6126 13.146 91.4096 13.563 89.7536 13.563C89.0696 13.563 88.4546 13.557 87.9086 13.545C87.3626 13.539 86.7416 13.527 86.0456 13.509L85.9466 13.41V3.726L86.0456 3.627C86.7416 3.609 87.3626 3.594 87.9086 3.582C88.4546 3.57 89.0696 3.564 89.7536 3.564C91.3976 3.564 92.5976 3.999 93.3536 4.869C94.1096 5.733 94.4876 6.972 94.4876 8.586ZM92.1746 8.586C92.1746 8.214 92.1446 7.836 92.0846 7.452C92.0246 7.068 91.9106 6.717 91.7426 6.399C91.5806 6.081 91.3376 5.826 91.0136 5.634C90.6956 5.436 90.2726 5.337 89.7446 5.337C89.4446 5.337 89.1776 5.334 88.9436 5.328C88.7156 5.322 88.4636 5.319 88.1876 5.319V11.835C88.4696 11.835 88.7246 11.832 88.9526 11.826C89.1806 11.82 89.4446 11.817 89.7446 11.817C90.2726 11.817 90.6956 11.721 91.0136 11.529C91.3376 11.331 91.5806 11.073 91.7426 10.755C91.9106 10.437 92.0246 10.089 92.0846 9.711C92.1446 9.333 92.1746 8.958 92.1746 8.586Z" fill="#2A2A2E"/>
</svg>
